<svg enable-background="new 0 0 501.551 501.551" viewBox="0 0 501.551 501.551" xmlns="http://www.w3.org/2000/svg"><path d="m485.616 269.584v10.449c0 6.269-4.18 10.449-10.449 10.449h-37.616v15.673h42.841c11.494 0 20.898-9.404 20.898-20.898v-15.673c0-4.18-3.135-8.359-8.359-8.359-4.18-.001-7.315 3.134-7.315 8.359z" fill="#f1543f"/><path d="m206.629 463.935c-2.09 20.898-19.853 37.616-41.796 37.616h-1.045c-22.988 0-41.796-18.808-41.796-41.796v-24.033c25.077 13.584 54.335 22.988 84.637 28.213z" fill="#f1543f"/><path d="m71.837 199.576c26.122-14.629 54.335-24.033 80.457-27.167l-57.469-57.469c-17.763 17.763-26.122 39.706-26.122 62.694 1.044 6.268 2.089 14.627 3.134 21.942z" fill="#40596b"/><path d="m11.233 254.955c-14.629 14.629-14.629 71.053 0 85.682 7.314 7.314 41.796 0 41.796 0v-85.682c-1.045 0-34.482-7.314-41.796 0z" fill="#f1543f"/><path d="m374.857 435.722v24.033c0 22.988-18.808 41.796-41.796 41.796h-1.045c-21.943 0-39.706-16.718-41.796-37.616 31.347-5.225 59.56-14.629 84.637-28.213z" fill="#f1543f"/><ellipse cx="248.424" cy="297.796" fill="#ff7058" rx="219.429" ry="169.273"/><circle cx="95.869" cy="250.776" fill="#40596b" r="12.539"/><path d="m317.388 171.363h-136.882c-4.18 0-8.359 3.135-8.359 8.359 0 4.18 3.135 8.359 8.359 8.359h136.882c4.18 0 7.314-3.135 7.314-8.359 0-4.179-3.135-8.359-7.314-8.359z" fill="#f1543f"/><circle cx="248.424" cy="89.861" fill="#ffd15c" r="89.861"/><circle cx="248.424" cy="89.861" fill="#f8b64c" r="67.918"/><path d="m237.975 117.029c-2.09-2.09-3.135-5.224-4.18-9.404l-17.763 2.09c1.045 8.359 4.18 15.673 9.404 19.853 5.224 5.224 11.494 7.314 18.808 8.359v8.359h9.404v-9.404c8.359-1.045 15.673-4.18 19.853-10.449 5.224-5.224 7.314-12.539 7.314-19.853s-2.09-13.584-6.269-17.763c-4.18-4.18-11.494-8.359-21.943-11.494v-24.033c4.18 2.09 7.314 5.224 8.359 10.449l16.718-2.09c-1.045-6.269-4.18-11.494-8.359-15.673-4.18-4.18-9.404-6.269-16.718-7.314v-7.314h-9.403v6.269c-7.314 1.045-13.584 3.135-18.808 8.359-4.18 5.224-7.314 11.494-7.314 18.808s2.09 13.584 6.269 18.808c4.18 5.224 10.449 8.359 18.808 11.494v28.212c-1.045-1.045-3.135-3.135-4.18-6.269zm15.674-18.809c4.18 1.045 7.314 3.135 8.359 5.224 1.045 2.09 3.135 5.224 3.135 7.314 0 3.135-1.045 6.269-3.135 8.359s-5.224 4.18-8.359 4.18zm-15.674-27.167c-1.045-2.09-2.09-4.18-2.09-6.269 0-2.09 1.045-5.224 2.09-7.314s3.135-3.135 6.269-4.18v22.988c-3.134-1.045-5.224-3.135-6.269-5.225z" fill="#ffd15c"/></svg>